v -3.791500000 -0.791500000 0.000000000
v -4.208500000 -0.791500000 0.000000000
v -4.208500000 -0.791500000 3.000000000
v -3.791500000 -0.791500000 3.000000000
v -3.791500000 6.791500000 0.000000000
v -4.208500000 6.791500000 0.000000000
v -4.208500000 6.791500000 3.000000000
v -3.791500000 6.791500000 3.000000000
v -3.791500000 4.377100000 0.914400000
v -4.208500000 4.377100000 0.914400000
v -4.208500000 4.377100000 2.133600000
v -3.791500000 4.377100000 2.133600000
v -4.208500000 5.291500000 2.133600000
v -3.791500000 5.291500000 2.133600000
v -4.208500000 5.291500000 0.914400000
v -3.791500000 5.291500000 0.914400000
v -3.791500000 0.708500000 0.914400000
v -4.208500000 0.708500000 0.914400000
v -4.208500000 0.708500000 2.133600000
v -3.791500000 0.708500000 2.133600000
v -4.208500000 1.622900000 2.133600000
v -3.791500000 1.622900000 2.133600000
v -4.208500000 1.622900000 0.914400000
v -3.791500000 1.622900000 0.914400000
f 2 1 4
f 3 2 4
f 8 5 6
f 8 6 7
f 5 1 2
f 5 2 6
f 3 4 8
f 7 3 8
f 12 9 10
f 12 10 11
f 14 12 11
f 14 11 13
f 16 14 13
f 16 13 15
f 9 16 15
f 9 15 10
f 20 17 18
f 20 18 19
f 22 20 19
f 22 19 21
f 24 22 21
f 24 21 23
f 17 24 23
f 17 23 18
f 22 4 20
f 17 4 1
f 17 20 4
f 24 17 1
f 12 4 22
f 9 22 24
f 9 12 22
f 9 24 1
f 8 12 14
f 8 4 12
f 16 8 14
f 5 16 9
f 5 9 1
f 5 8 16
f 19 3 21
f 2 3 18
f 3 19 18
f 2 18 23
f 21 3 11
f 23 21 10
f 21 11 10
f 2 23 10
f 13 11 7
f 11 3 7
f 13 7 15
f 10 15 6
f 2 10 6
f 15 7 6
